<svg preserveAspectRatio="none" overflow="visible" style="display: block;" width="20" height="20" viewBox="0 0 20 20" fill="none" xmlns="http://www.w3.org/2000/svg">
<g id="phone-fill">
<path id="Vector" d="M16.75 13.315V15.967C16.7501 16.1569 16.6781 16.3397 16.5487 16.4786C16.4192 16.6176 16.2419 16.7022 16.0525 16.7155C15.7247 16.738 15.457 16.75 15.25 16.75C8.62225 16.75 3.25 11.3778 3.25 4.75C3.25 4.543 3.26125 4.27525 3.2845 3.9475C3.29779 3.75808 3.38244 3.58076 3.52135 3.45131C3.66027 3.32186 3.84312 3.24991 4.033 3.25H6.685C6.77803 3.24991 6.86777 3.28439 6.9368 3.34677C7.00582 3.40914 7.0492 3.49494 7.0585 3.5875C7.07575 3.76 7.0915 3.89725 7.1065 4.0015C7.25555 5.04169 7.561 6.05337 8.0125 7.00225C8.08375 7.15225 8.03725 7.3315 7.90225 7.4275L6.28375 8.584C7.27334 10.8898 9.11091 12.7274 11.4167 13.717L12.5717 12.1015C12.619 12.0355 12.6878 11.9882 12.7664 11.9677C12.8449 11.9473 12.9281 11.9551 13.0015 11.9898C13.9503 12.4404 14.9617 12.7451 16.0015 12.8935C16.1058 12.9085 16.243 12.925 16.414 12.9415C16.5064 12.951 16.592 12.9944 16.6543 13.0634C16.7165 13.1324 16.7509 13.2221 16.7507 13.315H16.75Z" fill="#1A271A"/>
</g>
</svg>
