<svg preserveAspectRatio="none" overflow="visible" style="display: block;" width="115.605" height="20.1636" viewBox="0 0 115.605 20.1636" fill="none" xmlns="http://www.w3.org/2000/svg">
<g id="Group 91">
<path id="Vector" d="M12.1164 3.81756C12.0314 3.97924 11.9129 4.12095 11.7689 4.23333C11.6341 4.32349 11.4743 4.36882 11.3123 4.36283C11.09 4.35097 10.8754 4.27784 10.6922 4.15154C10.465 4.01068 10.1992 3.85391 9.89485 3.68124C9.54681 3.49577 9.18448 3.3385 8.81132 3.21094C8.33799 3.05993 7.84288 2.98853 7.34618 2.99965C6.885 2.98851 6.42497 3.05064 5.98325 3.18369C5.63269 3.28977 5.30627 3.46343 5.02238 3.69488C4.76896 3.90564 4.57022 4.17457 4.44314 4.47873C4.31463 4.79701 4.2498 5.1374 4.25233 5.48065C4.23853 5.901 4.37641 6.31229 4.64077 6.63936C4.92893 6.96574 5.27859 7.23212 5.66976 7.42321C6.13868 7.65893 6.6265 7.85499 7.12811 8.00937L8.8045 8.56146C9.3755 8.75741 9.93516 8.98496 10.4809 9.24305C11.0138 9.49457 11.5055 9.8255 11.9392 10.2245C12.373 10.6357 12.7205 11.1293 12.9614 11.6763C13.2373 12.3362 13.3697 13.0471 13.3499 13.762C13.3577 14.615 13.2027 15.4617 12.8933 16.2566C12.5917 17.0285 12.1268 17.7261 11.5304 18.3014C10.9151 18.8972 10.1846 19.3611 9.38375 19.6646C8.45608 20.012 7.47109 20.1808 6.48071 20.1622C5.85828 20.1624 5.23737 20.1007 4.62712 19.9781C4.03076 19.857 3.44679 19.6813 2.88258 19.4533C2.33236 19.2328 1.8051 18.9589 1.3084 18.6354C0.83208 18.3335 0.392937 17.9766 0 17.5721L1.0767 15.8136C1.1696 15.6836 1.29075 15.5764 1.43106 15.5001C1.57018 15.414 1.73087 15.369 1.89447 15.3706C2.16304 15.3841 2.42052 15.4819 2.63044 15.65C2.8894 15.8317 3.20287 16.0362 3.57086 16.2634C3.97094 16.5132 4.39568 16.721 4.83838 16.8837C5.39984 17.0844 5.9937 17.1792 6.58974 17.1631C7.46193 17.2196 8.32468 16.9554 9.01575 16.4202C9.30929 16.1529 9.5389 15.823 9.68755 15.4549C9.83619 15.0867 9.90006 14.6898 9.8744 14.2936C9.89417 13.839 9.75702 13.3914 9.48596 13.0259C9.20516 12.6813 8.85442 12.4001 8.45695 12.2011C7.99118 11.9638 7.50259 11.7743 6.99863 11.6354C6.45345 11.4787 5.90147 11.3151 5.33585 11.1311C4.76894 10.9361 4.21376 10.7085 3.67308 10.4495C3.13751 10.2004 2.647 9.86411 2.22156 9.45434C1.7762 9.01983 1.42582 8.49764 1.19256 7.92076C0.941609 7.1942 0.837366 6.42503 0.885895 5.65787C0.888764 4.92664 1.03866 4.20346 1.32666 3.53135C1.61465 2.85923 2.03485 2.25192 2.56229 1.74554C3.14399 1.19673 3.82675 0.766176 4.57262 0.477789C5.44376 0.15093 6.36812 -0.0108732 7.29847 0.000665995C8.3945 -0.00995659 9.48367 0.174674 10.515 0.545931C11.4435 0.880015 12.2944 1.39946 13.0159 2.07269L12.1164 3.81756Z" fill="#1F1832"/>
<path id="Vector_2" d="M33.0472 19.9319H30.1919C29.9154 19.9431 29.6436 19.8589 29.4218 19.6934C29.2198 19.5413 29.0641 19.3359 28.9721 19.1004L27.5001 15.0858H19.3225L17.8506 19.1004C17.7666 19.3273 17.6201 19.5258 17.4281 19.6729C17.2075 19.8478 16.9325 19.9394 16.6512 19.9319H13.8367L21.5782 0.206672H25.3126L33.0472 19.9319ZM26.5801 12.4753L24.1814 5.92524C24.0655 5.63215 23.9429 5.28453 23.8134 4.8892C23.6839 4.49388 23.5612 4.05765 23.4318 3.59416C23.3159 4.05765 23.1933 4.48707 23.0638 4.89603C22.9343 5.30498 22.8184 5.65259 22.6958 5.95249L20.3175 12.4753H26.5801Z" fill="#1F1832"/>
<path id="Vector_3" d="M50.4681 19.9332H47.1562C46.8826 19.9526 46.6091 19.8937 46.3678 19.7633C46.1264 19.633 45.9272 19.4366 45.7933 19.1971L41.65 12.8924C41.5232 12.6852 41.3478 12.512 41.1389 12.388C40.8803 12.2718 40.5973 12.2203 40.3143 12.2381H38.7469V19.9332H35.0875V0.207978H41.098C42.2474 0.191481 43.3936 0.331343 44.5053 0.623739C45.3591 0.85103 46.1585 1.24738 46.8564 1.78928C47.4553 2.26156 47.9243 2.87842 48.2193 3.58187C48.7468 4.91414 48.7973 6.38789 48.3624 7.7532C48.1761 8.33435 47.8902 8.87863 47.5174 9.36175C47.1367 9.85723 46.6761 10.2857 46.1544 10.6295C45.5835 11.0034 44.9615 11.2926 44.3077 11.4883C44.5508 11.6259 44.7791 11.7881 44.9892 11.9723C45.1984 12.176 45.3816 12.4049 45.5343 12.6539L50.4681 19.9332ZM41.0435 9.60711C41.6556 9.62106 42.2658 9.53353 42.8494 9.34811C43.3149 9.21222 43.7468 8.98001 44.1169 8.66651C44.4453 8.36792 44.6997 7.99688 44.8597 7.58281C45.0264 7.14786 45.1096 6.6854 45.105 6.21962C45.1305 5.78524 45.0545 5.35088 44.883 4.951C44.7115 4.55112 44.4492 4.19671 44.1169 3.91584C43.2364 3.29802 42.1712 2.99982 41.098 3.07067H38.7538V9.60711H41.0435Z" fill="#1F1832"/>
<path id="Vector_4" d="M70.663 19.9319H67.8281C67.5497 19.9419 67.276 19.8579 67.0512 19.6934C66.8536 19.5369 66.6989 19.3329 66.6015 19.1004L65.1295 15.0858H56.952L55.4868 19.1004C55.3991 19.3253 55.2533 19.5229 55.0643 19.6729C54.8437 19.8478 54.5687 19.9394 54.2874 19.9319H51.4253L59.194 0.206672H62.9284L70.663 19.9319ZM64.1959 12.4753L61.7972 5.92524C61.6813 5.63215 61.5586 5.28453 61.4291 4.88921C61.2997 4.49388 61.177 4.05765 61.0475 3.59416C60.9317 4.05765 60.809 4.48707 60.6795 4.89603C60.5501 5.30498 60.4274 5.65259 60.3116 5.95249L57.9537 12.4753H64.1959Z" fill="#1F1832"/>
<path id="Vector_5" d="M79.4977 0.20648C80.6107 0.186028 81.7216 0.309727 82.8029 0.574525C83.6165 0.772431 84.3831 1.12917 85.0585 1.6242C85.6236 2.05298 86.0675 2.6214 86.3465 3.27364C86.6281 3.96577 86.7671 4.70761 86.7553 5.45475C86.7609 5.91718 86.6919 6.37748 86.5509 6.81793C86.4093 7.24464 86.1949 7.64358 85.9172 7.99707C85.6089 8.38655 85.2409 8.72474 84.8268 8.99903C84.3403 9.32583 83.8104 9.58279 83.2526 9.76241C85.9785 10.3713 87.3414 11.8345 87.3414 14.1519C87.3507 14.9474 87.188 15.7356 86.8644 16.4624C86.5531 17.168 86.0874 17.7946 85.5014 18.2959C84.8363 18.8389 84.0728 19.2485 83.2526 19.5023C82.2669 19.809 81.2386 19.9563 80.2065 19.9386H72.7172V0.20648H79.4977ZM76.363 3.06917V8.76045H79.2797C80.2743 8.82852 81.2659 8.59068 82.1214 8.07886C82.4484 7.82723 82.707 7.49763 82.8737 7.12016C83.0404 6.7427 83.1097 6.32943 83.0754 5.91822C83.1169 5.50986 83.06 5.09746 82.9094 4.71562C82.7588 4.33378 82.519 3.99357 82.21 3.72348C81.3954 3.21578 80.4418 2.97732 79.4841 3.04188L76.363 3.06917ZM80.0702 17.0691C80.6523 17.0839 81.2328 17.001 81.7875 16.8237C82.2023 16.6829 82.5797 16.4499 82.8915 16.1421C83.1644 15.8789 83.3701 15.554 83.4911 15.1947C83.6151 14.821 83.6772 14.4296 83.6751 14.036C83.6815 13.6424 83.6121 13.2514 83.4707 12.8841C83.336 12.5429 83.1153 12.2423 82.8301 12.0117C82.5001 11.7517 82.1194 11.5636 81.7125 11.4596C81.1716 11.3219 80.6146 11.2577 80.0565 11.2687H76.363V17.0418L80.0702 17.0691Z" fill="#1F1832"/>
<path id="Vector_6" d="M94.3273 19.9319H90.6747V0.206672H94.3546L94.3273 19.9319Z" fill="#1F1832"/>
<path id="Vector_7" d="M115.605 19.9319H112.77C112.492 19.9441 112.217 19.8599 111.994 19.6934C111.796 19.5369 111.641 19.3329 111.544 19.1004L110.072 15.0858H101.894L100.422 19.1004C100.341 19.3286 100.194 19.5277 99.9998 19.6729C99.7825 19.8489 99.5092 19.9408 99.2297 19.9319H96.3676L104.136 0.206672H107.871L115.605 19.9319ZM109.131 12.4958L106.739 5.94566C106.617 5.65258 106.494 5.305 106.371 4.90967C106.249 4.51435 106.112 4.07811 105.99 3.61463C105.867 4.07811 105.745 4.5075 105.622 4.91645C105.499 5.32541 105.37 5.67305 105.254 5.97296L102.869 12.4958H109.131Z" fill="#1F1832"/>
</g>
</svg>
